<?xml version="1.0" encoding="UTF-8"?>
<svg id="Layer_2" data-name="Layer 2" xmlns="http://www.w3.org/2000/svg" viewBox="0 0 214.38 214.29">
  <defs>
    <style>
      .cls-1 {
        fill: #fff;
      }
    </style>
  </defs>
  <g id="Layer_1-2" data-name="Layer 1">
    <g>
      <path class="cls-1" d="M74.08,68.96l63.36,120.98c39.02-13.8,62.79-54.09,57.14-94.79-5.7-41.04-38.75-72.35-80.55-76.06L104.32.04c56.14-1.45,103.38,40.36,109.43,95.45,6.04,55.06-31.25,106.18-86.02,116.97L62.87,88.5l11.21-19.54Z"/>
      <path class="cls-1" d="M134.08,145.76L71.55,26.45C35.64,42.49,14.68,79.96,19.67,118.49c4.98,38.42,34.33,69.63,73.89,75.92l10.22,19.88C49.68,212.72,6.23,171.11.63,118.93-5.05,66.08,28.38,16.97,80.86,3.19l64.51,123.14c-3.51,6.55-6.75,12.36-11.29,19.42Z"/>
    </g>
  </g>
</svg>